<?xml version="1.0" encoding="UTF-8" standalone="no"?>
<!DOCTYPE svg PUBLIC "-//W3C//DTD SVG 1.1//EN"
 "http://www.w3.org/Graphics/SVG/1.1/DTD/svg11.dtd">
<!-- Generated by graphviz version 2.47.0 (20210316.0004)
 -->
<!-- Title: dbml Pages: 1 -->
<svg width="1678pt" height="1000pt"
 viewBox="0.00 0.00 1678.06 999.77" xmlns="http://www.w3.org/2000/svg" xmlns:xlink="http://www.w3.org/1999/xlink">
<g id="graph0" class="graph" transform="scale(1 1) rotate(0) translate(4 995.77)">
<title>dbml</title>
<!-- Ordinateurs -->
<g id="Ordinateurs" class="node">
<title>Ordinateurs</title>
<ellipse fill="none" stroke="black" stroke-width="0" cx="799.68" cy="-342.24" rx="224.31" ry="342.48"/>
<polygon fill="#1d71b8" stroke="transparent" points="643.68,-522.24 643.68,-582.24 956.68,-582.24 956.68,-522.24 643.68,-522.24"/>
<polygon fill="none" stroke="#29235c" points="643.68,-522.24 643.68,-582.24 956.68,-582.24 956.68,-522.24 643.68,-522.24"/>
<text text-anchor="start" x="654.36" y="-543.44" font-family="Helvetica,sans-Serif" font-weight="bold" font-size="32.00" fill="#ffffff"> &#160;&#160;&#160;&#160;&#160;&#160;Ordinateurs &#160;&#160;&#160;&#160;&#160;&#160;</text>
<polygon fill="#e7e2dd" stroke="transparent" points="643.68,-462.24 643.68,-522.24 956.68,-522.24 956.68,-462.24 643.68,-462.24"/>
<polygon fill="none" stroke="#29235c" points="643.68,-462.24 643.68,-522.24 956.68,-522.24 956.68,-462.24 643.68,-462.24"/>
<text text-anchor="start" x="654.68" y="-483.44" font-family="Helvetica,sans-Serif" font-weight="bold" font-size="32.00" fill="#29235c">OrdinateurID</text>
<text text-anchor="start" x="837.8" y="-483.44" font-family="Helvetica,sans-Serif" font-size="32.00" fill="#29235c"> &#160;&#160;&#160;</text>
<text text-anchor="start" x="894.13" y="-483.44" font-family="Helvetica,sans-Serif" font-style="italic" font-size="32.00" fill="#29235c">INT</text>
<polygon fill="#e7e2dd" stroke="transparent" points="643.68,-402.24 643.68,-462.24 956.68,-462.24 956.68,-402.24 643.68,-402.24"/>
<polygon fill="none" stroke="#29235c" points="643.68,-402.24 643.68,-462.24 956.68,-462.24 956.68,-402.24 643.68,-402.24"/>
<text text-anchor="start" x="654.68" y="-422.44" font-family="Helvetica,sans-Serif" font-size="32.00" fill="#29235c">UserID &#160;&#160;&#160;</text>
<text text-anchor="start" x="894.13" y="-423.44" font-family="Helvetica,sans-Serif" font-style="italic" font-size="32.00" fill="#29235c">INT</text>
<polygon fill="#e7e2dd" stroke="transparent" points="643.68,-342.24 643.68,-402.24 956.68,-402.24 956.68,-342.24 643.68,-342.24"/>
<polygon fill="none" stroke="#29235c" points="643.68,-342.24 643.68,-402.24 956.68,-402.24 956.68,-342.24 643.68,-342.24"/>
<text text-anchor="start" x="654.68" y="-362.44" font-family="Helvetica,sans-Serif" font-size="32.00" fill="#29235c">MarqueID &#160;&#160;&#160;</text>
<text text-anchor="start" x="894.13" y="-363.44" font-family="Helvetica,sans-Serif" font-style="italic" font-size="32.00" fill="#29235c">INT</text>
<polygon fill="#e7e2dd" stroke="transparent" points="643.68,-282.24 643.68,-342.24 956.68,-342.24 956.68,-282.24 643.68,-282.24"/>
<polygon fill="none" stroke="#29235c" points="643.68,-282.24 643.68,-342.24 956.68,-342.24 956.68,-282.24 643.68,-282.24"/>
<text text-anchor="start" x="654.68" y="-302.44" font-family="Helvetica,sans-Serif" font-size="32.00" fill="#29235c">DateAchat &#160;&#160;&#160;</text>
<text text-anchor="start" x="860.34" y="-303.44" font-family="Helvetica,sans-Serif" font-style="italic" font-size="32.00" fill="#29235c">DATE</text>
<polygon fill="#e7e2dd" stroke="transparent" points="643.68,-222.24 643.68,-282.24 956.68,-282.24 956.68,-222.24 643.68,-222.24"/>
<polygon fill="none" stroke="#29235c" points="643.68,-222.24 643.68,-282.24 956.68,-282.24 956.68,-222.24 643.68,-222.24"/>
<text text-anchor="start" x="654.68" y="-242.44" font-family="Helvetica,sans-Serif" font-size="32.00" fill="#29235c">RAM &#160;&#160;&#160;</text>
<text text-anchor="start" x="894.13" y="-243.44" font-family="Helvetica,sans-Serif" font-style="italic" font-size="32.00" fill="#29235c">INT</text>
<polygon fill="#e7e2dd" stroke="transparent" points="643.68,-162.24 643.68,-222.24 956.68,-222.24 956.68,-162.24 643.68,-162.24"/>
<polygon fill="none" stroke="#29235c" points="643.68,-162.24 643.68,-222.24 956.68,-222.24 956.68,-162.24 643.68,-162.24"/>
<text text-anchor="start" x="654.68" y="-182.44" font-family="Helvetica,sans-Serif" font-size="32.00" fill="#29235c">Stockage &#160;&#160;&#160;</text>
<text text-anchor="start" x="894.13" y="-183.44" font-family="Helvetica,sans-Serif" font-style="italic" font-size="32.00" fill="#29235c">INT</text>
<polygon fill="#e7e2dd" stroke="transparent" points="643.68,-102.24 643.68,-162.24 956.68,-162.24 956.68,-102.24 643.68,-102.24"/>
<polygon fill="none" stroke="#29235c" points="643.68,-102.24 643.68,-162.24 956.68,-162.24 956.68,-102.24 643.68,-102.24"/>
<text text-anchor="start" x="654.68" y="-122.44" font-family="Helvetica,sans-Serif" font-size="32.00" fill="#29235c">OS_ID &#160;&#160;&#160;</text>
<text text-anchor="start" x="894.13" y="-123.44" font-family="Helvetica,sans-Serif" font-style="italic" font-size="32.00" fill="#29235c">INT</text>
<polygon fill="none" stroke="#29235c" stroke-width="2" points="642.18,-101.24 642.18,-583.24 957.18,-583.24 957.18,-101.24 642.18,-101.24"/>
</g>
<!-- Logiciels_Installes -->
<g id="Logiciels_Installes" class="node">
<title>Logiciels_Installes</title>
<ellipse fill="none" stroke="black" stroke-width="0" cx="1380.15" cy="-819.24" rx="289.83" ry="172.57"/>
<polygon fill="#1d71b8" stroke="transparent" points="1177.15,-879.24 1177.15,-939.24 1583.15,-939.24 1583.15,-879.24 1177.15,-879.24"/>
<polygon fill="none" stroke="#29235c" points="1177.15,-879.24 1177.15,-939.24 1583.15,-939.24 1583.15,-879.24 1177.15,-879.24"/>
<text text-anchor="start" x="1188.1" y="-900.44" font-family="Helvetica,sans-Serif" font-weight="bold" font-size="32.00" fill="#ffffff"> &#160;&#160;&#160;&#160;&#160;&#160;Logiciels_Installes &#160;&#160;&#160;&#160;&#160;&#160;</text>
<polygon fill="#e7e2dd" stroke="transparent" points="1177.15,-819.24 1177.15,-879.24 1583.15,-879.24 1583.15,-819.24 1177.15,-819.24"/>
<polygon fill="none" stroke="#29235c" points="1177.15,-819.24 1177.15,-879.24 1583.15,-879.24 1583.15,-819.24 1177.15,-819.24"/>
<text text-anchor="start" x="1188.15" y="-839.44" font-family="Helvetica,sans-Serif" font-size="32.00" fill="#29235c">Logiciels_installesID &#160;&#160;&#160;</text>
<text text-anchor="start" x="1520.61" y="-840.44" font-family="Helvetica,sans-Serif" font-style="italic" font-size="32.00" fill="#29235c">INT</text>
<polygon fill="#e7e2dd" stroke="transparent" points="1177.15,-759.24 1177.15,-819.24 1583.15,-819.24 1583.15,-759.24 1177.15,-759.24"/>
<polygon fill="none" stroke="#29235c" points="1177.15,-759.24 1177.15,-819.24 1583.15,-819.24 1583.15,-759.24 1177.15,-759.24"/>
<text text-anchor="start" x="1188.15" y="-779.44" font-family="Helvetica,sans-Serif" font-size="32.00" fill="#29235c">OrdinateurID &#160;&#160;&#160;</text>
<text text-anchor="start" x="1520.61" y="-780.44" font-family="Helvetica,sans-Serif" font-style="italic" font-size="32.00" fill="#29235c">INT</text>
<polygon fill="#e7e2dd" stroke="transparent" points="1177.15,-699.24 1177.15,-759.24 1583.15,-759.24 1583.15,-699.24 1177.15,-699.24"/>
<polygon fill="none" stroke="#29235c" points="1177.15,-699.24 1177.15,-759.24 1583.15,-759.24 1583.15,-699.24 1177.15,-699.24"/>
<text text-anchor="start" x="1188.15" y="-719.44" font-family="Helvetica,sans-Serif" font-size="32.00" fill="#29235c">LogicielID &#160;&#160;&#160;</text>
<text text-anchor="start" x="1520.61" y="-720.44" font-family="Helvetica,sans-Serif" font-style="italic" font-size="32.00" fill="#29235c">INT</text>
<polygon fill="none" stroke="#29235c" stroke-width="2" points="1176.15,-698.24 1176.15,-940.24 1584.15,-940.24 1584.15,-698.24 1176.15,-698.24"/>
</g>
<!-- Ordinateurs&#45;&gt;Logiciels_Installes -->
<!-- Ordinateurs&#45;&gt;Logiciels_Installes -->
<g id="edge4" class="edge">
<title>Ordinateurs:e&#45;&gt;Logiciels_Installes:w</title>
<path fill="none" stroke="#29235c" stroke-width="3" d="M957.68,-492.24C1118.02,-492.24 1016.85,-776.62 1165.96,-788.83"/>
<polygon fill="#29235c" stroke="#29235c" stroke-width="3" points="1166.02,-792.34 1176.15,-789.24 1166.29,-785.34 1166.02,-792.34"/>
<text text-anchor="middle" x="1182.37" y="-798.84" font-family="Helvetica,sans-Serif" font-size="32.00" fill="#29235c">*</text>
<text text-anchor="middle" x="966.57" y="-492.24" font-family="Helvetica,sans-Serif" font-size="32.00" fill="#29235c">1</text>
</g>
<!-- Interventions -->
<g id="Interventions" class="node">
<title>Interventions</title>
<ellipse fill="none" stroke="black" stroke-width="0" cx="1380.15" cy="-414.24" rx="260.84" ry="214.92"/>
<polygon fill="#1d71b8" stroke="transparent" points="1198.15,-504.24 1198.15,-564.24 1563.15,-564.24 1563.15,-504.24 1198.15,-504.24"/>
<polygon fill="none" stroke="#29235c" points="1198.15,-504.24 1198.15,-564.24 1563.15,-564.24 1563.15,-504.24 1198.15,-504.24"/>
<text text-anchor="start" x="1226.82" y="-525.44" font-family="Helvetica,sans-Serif" font-weight="bold" font-size="32.00" fill="#ffffff"> &#160;&#160;&#160;&#160;&#160;&#160;Interventions &#160;&#160;&#160;&#160;&#160;&#160;</text>
<polygon fill="#e7e2dd" stroke="transparent" points="1198.15,-444.24 1198.15,-504.24 1563.15,-504.24 1563.15,-444.24 1198.15,-444.24"/>
<polygon fill="none" stroke="#29235c" points="1198.15,-444.24 1198.15,-504.24 1563.15,-504.24 1563.15,-444.24 1198.15,-444.24"/>
<text text-anchor="start" x="1209.15" y="-465.44" font-family="Helvetica,sans-Serif" font-weight="bold" font-size="32.00" fill="#29235c">InterventionID</text>
<text text-anchor="start" x="1408.31" y="-465.44" font-family="Helvetica,sans-Serif" font-size="32.00" fill="#29235c"> &#160;&#160;&#160;</text>
<text text-anchor="start" x="1500.61" y="-465.44" font-family="Helvetica,sans-Serif" font-style="italic" font-size="32.00" fill="#29235c">INT</text>
<polygon fill="#e7e2dd" stroke="transparent" points="1198.15,-384.24 1198.15,-444.24 1563.15,-444.24 1563.15,-384.24 1198.15,-384.24"/>
<polygon fill="none" stroke="#29235c" points="1198.15,-384.24 1198.15,-444.24 1563.15,-444.24 1563.15,-384.24 1198.15,-384.24"/>
<text text-anchor="start" x="1209.13" y="-404.44" font-family="Helvetica,sans-Serif" font-size="32.00" fill="#29235c">Objet &#160;&#160;&#160;</text>
<text text-anchor="start" x="1321.1" y="-405.44" font-family="Helvetica,sans-Serif" font-style="italic" font-size="32.00" fill="#29235c">VARCHAR(250)</text>
<polygon fill="#e7e2dd" stroke="transparent" points="1198.15,-324.24 1198.15,-384.24 1563.15,-384.24 1563.15,-324.24 1198.15,-324.24"/>
<polygon fill="none" stroke="#29235c" points="1198.15,-324.24 1198.15,-384.24 1563.15,-384.24 1563.15,-324.24 1198.15,-324.24"/>
<text text-anchor="start" x="1209.15" y="-344.44" font-family="Helvetica,sans-Serif" font-size="32.00" fill="#29235c">OrdinateurID &#160;&#160;&#160;</text>
<text text-anchor="start" x="1500.61" y="-345.44" font-family="Helvetica,sans-Serif" font-style="italic" font-size="32.00" fill="#29235c">INT</text>
<polygon fill="#e7e2dd" stroke="transparent" points="1198.15,-264.24 1198.15,-324.24 1563.15,-324.24 1563.15,-264.24 1198.15,-264.24"/>
<polygon fill="none" stroke="#29235c" points="1198.15,-264.24 1198.15,-324.24 1563.15,-324.24 1563.15,-264.24 1198.15,-264.24"/>
<text text-anchor="start" x="1209.15" y="-284.44" font-family="Helvetica,sans-Serif" font-size="32.00" fill="#29235c">Date &#160;&#160;&#160;</text>
<text text-anchor="start" x="1365.49" y="-285.44" font-family="Helvetica,sans-Serif" font-style="italic" font-size="32.00" fill="#29235c">TIMESTAMP</text>
<polygon fill="none" stroke="#29235c" stroke-width="2" points="1196.65,-263.24 1196.65,-565.24 1563.65,-565.24 1563.65,-263.24 1196.65,-263.24"/>
</g>
<!-- Ordinateurs&#45;&gt;Interventions -->
<!-- Ordinateurs&#45;&gt;Interventions -->
<g id="edge6" class="edge">
<title>Ordinateurs:e&#45;&gt;Interventions:w</title>
<path fill="none" stroke="#29235c" stroke-width="3" d="M957.68,-492.24C1077.04,-492.24 1074.56,-361.95 1187.02,-354.57"/>
<polygon fill="#29235c" stroke="#29235c" stroke-width="3" points="1187.27,-358.06 1197.15,-354.24 1187.04,-351.06 1187.27,-358.06"/>
<text text-anchor="middle" x="1203.37" y="-325.44" font-family="Helvetica,sans-Serif" font-size="32.00" fill="#29235c">*</text>
<text text-anchor="middle" x="948.78" y="-463.44" font-family="Helvetica,sans-Serif" font-size="32.00" fill="#29235c">1</text>
</g>
<!-- Logiciels -->
<g id="Logiciels" class="node">
<title>Logiciels</title>
<ellipse fill="none" stroke="black" stroke-width="0" cx="799.68" cy="-849.24" rx="254.62" ry="130.22"/>
<polygon fill="#1d71b8" stroke="transparent" points="621.68,-879.24 621.68,-939.24 977.68,-939.24 977.68,-879.24 621.68,-879.24"/>
<polygon fill="none" stroke="#29235c" points="621.68,-879.24 621.68,-939.24 977.68,-939.24 977.68,-879.24 621.68,-879.24"/>
<text text-anchor="start" x="675.2" y="-900.44" font-family="Helvetica,sans-Serif" font-weight="bold" font-size="32.00" fill="#ffffff"> &#160;&#160;&#160;&#160;&#160;&#160;Logiciels &#160;&#160;&#160;&#160;&#160;&#160;</text>
<polygon fill="#e7e2dd" stroke="transparent" points="621.68,-819.24 621.68,-879.24 977.68,-879.24 977.68,-819.24 621.68,-819.24"/>
<polygon fill="none" stroke="#29235c" points="621.68,-819.24 621.68,-879.24 977.68,-879.24 977.68,-819.24 621.68,-819.24"/>
<text text-anchor="start" x="632.68" y="-839.44" font-family="Helvetica,sans-Serif" font-size="32.00" fill="#29235c">LogicielID &#160;&#160;&#160;</text>
<text text-anchor="start" x="915.13" y="-840.44" font-family="Helvetica,sans-Serif" font-style="italic" font-size="32.00" fill="#29235c">INT</text>
<polygon fill="#e7e2dd" stroke="transparent" points="621.68,-759.24 621.68,-819.24 977.68,-819.24 977.68,-759.24 621.68,-759.24"/>
<polygon fill="none" stroke="#29235c" points="621.68,-759.24 621.68,-819.24 977.68,-819.24 977.68,-759.24 621.68,-759.24"/>
<text text-anchor="start" x="632.62" y="-779.44" font-family="Helvetica,sans-Serif" font-size="32.00" fill="#29235c">Nom &#160;&#160;&#160;</text>
<text text-anchor="start" x="735.63" y="-780.44" font-family="Helvetica,sans-Serif" font-style="italic" font-size="32.00" fill="#29235c">VARCHAR(200)</text>
<polygon fill="none" stroke="#29235c" stroke-width="2" points="620.68,-758.24 620.68,-940.24 978.68,-940.24 978.68,-758.24 620.68,-758.24"/>
</g>
<!-- Logiciels&#45;&gt;Logiciels_Installes -->
<!-- Logiciels&#45;&gt;Logiciels_Installes -->
<g id="edge2" class="edge">
<title>Logiciels:e&#45;&gt;Logiciels_Installes:w</title>
<path fill="none" stroke="#29235c" stroke-width="3" d="M978.68,-849.24C1077.86,-849.24 1073.86,-737.3 1166,-729.65"/>
<polygon fill="#29235c" stroke="#29235c" stroke-width="3" points="1166.3,-733.14 1176.15,-729.24 1166.01,-726.15 1166.3,-733.14"/>
<text text-anchor="middle" x="1182.37" y="-738.84" font-family="Helvetica,sans-Serif" font-size="32.00" fill="#29235c">*</text>
<text text-anchor="middle" x="969.78" y="-858.84" font-family="Helvetica,sans-Serif" font-size="32.00" fill="#29235c">1</text>
</g>
<!-- Marques -->
<g id="Marques" class="node">
<title>Marques</title>
<ellipse fill="none" stroke="black" stroke-width="0" cx="254.56" cy="-492.24" rx="254.62" ry="130.22"/>
<polygon fill="#1d71b8" stroke="transparent" points="76.56,-522.24 76.56,-582.24 432.56,-582.24 432.56,-522.24 76.56,-522.24"/>
<polygon fill="none" stroke="#29235c" points="76.56,-522.24 76.56,-582.24 432.56,-582.24 432.56,-522.24 76.56,-522.24"/>
<text text-anchor="start" x="130.08" y="-543.44" font-family="Helvetica,sans-Serif" font-weight="bold" font-size="32.00" fill="#ffffff"> &#160;&#160;&#160;&#160;&#160;&#160;Marques &#160;&#160;&#160;&#160;&#160;&#160;</text>
<polygon fill="#e7e2dd" stroke="transparent" points="76.56,-462.24 76.56,-522.24 432.56,-522.24 432.56,-462.24 76.56,-462.24"/>
<polygon fill="none" stroke="#29235c" points="76.56,-462.24 76.56,-522.24 432.56,-522.24 432.56,-462.24 76.56,-462.24"/>
<text text-anchor="start" x="87.56" y="-482.44" font-family="Helvetica,sans-Serif" font-size="32.00" fill="#29235c">MarqueID &#160;&#160;&#160;</text>
<text text-anchor="start" x="370.02" y="-483.44" font-family="Helvetica,sans-Serif" font-style="italic" font-size="32.00" fill="#29235c">INT</text>
<polygon fill="#e7e2dd" stroke="transparent" points="76.56,-402.24 76.56,-462.24 432.56,-462.24 432.56,-402.24 76.56,-402.24"/>
<polygon fill="none" stroke="#29235c" points="76.56,-402.24 76.56,-462.24 432.56,-462.24 432.56,-402.24 76.56,-402.24"/>
<text text-anchor="start" x="87.5" y="-422.44" font-family="Helvetica,sans-Serif" font-size="32.00" fill="#29235c">Nom &#160;&#160;&#160;</text>
<text text-anchor="start" x="190.51" y="-423.44" font-family="Helvetica,sans-Serif" font-style="italic" font-size="32.00" fill="#29235c">VARCHAR(200)</text>
<polygon fill="none" stroke="#29235c" stroke-width="2" points="75.56,-401.24 75.56,-583.24 433.56,-583.24 433.56,-401.24 75.56,-401.24"/>
</g>
<!-- Marques&#45;&gt;Ordinateurs -->
<!-- Marques&#45;&gt;Ordinateurs -->
<g id="edge10" class="edge">
<title>Marques:e&#45;&gt;Ordinateurs:w</title>
<path fill="none" stroke="#29235c" stroke-width="3" d="M433.56,-492.24C537.26,-492.24 535.74,-379.85 632.66,-372.61"/>
<polygon fill="#29235c" stroke="#29235c" stroke-width="3" points="632.81,-376.1 642.68,-372.24 632.55,-369.11 632.81,-376.1"/>
<text text-anchor="middle" x="636.45" y="-343.44" font-family="Helvetica,sans-Serif" font-size="32.00" fill="#29235c">*</text>
<text text-anchor="middle" x="442.45" y="-492.24" font-family="Helvetica,sans-Serif" font-size="32.00" fill="#29235c">1</text>
</g>
<!-- OS -->
<g id="OS" class="node">
<title>OS</title>
<ellipse fill="none" stroke="black" stroke-width="0" cx="254.56" cy="-214.24" rx="254.62" ry="130.22"/>
<polygon fill="#1d71b8" stroke="transparent" points="76.56,-244.24 76.56,-304.24 432.56,-304.24 432.56,-244.24 76.56,-244.24"/>
<polygon fill="none" stroke="#29235c" points="76.56,-244.24 76.56,-304.24 432.56,-304.24 432.56,-244.24 76.56,-244.24"/>
<text text-anchor="start" x="169.19" y="-265.44" font-family="Helvetica,sans-Serif" font-weight="bold" font-size="32.00" fill="#ffffff"> &#160;&#160;&#160;&#160;&#160;&#160;OS &#160;&#160;&#160;&#160;&#160;&#160;</text>
<polygon fill="#e7e2dd" stroke="transparent" points="76.56,-184.24 76.56,-244.24 432.56,-244.24 432.56,-184.24 76.56,-184.24"/>
<polygon fill="none" stroke="#29235c" points="76.56,-184.24 76.56,-244.24 432.56,-244.24 432.56,-184.24 76.56,-184.24"/>
<text text-anchor="start" x="87.56" y="-204.44" font-family="Helvetica,sans-Serif" font-size="32.00" fill="#29235c">OS_ID &#160;&#160;&#160;</text>
<text text-anchor="start" x="370.02" y="-205.44" font-family="Helvetica,sans-Serif" font-style="italic" font-size="32.00" fill="#29235c">INT</text>
<polygon fill="#e7e2dd" stroke="transparent" points="76.56,-124.24 76.56,-184.24 432.56,-184.24 432.56,-124.24 76.56,-124.24"/>
<polygon fill="none" stroke="#29235c" points="76.56,-124.24 76.56,-184.24 432.56,-184.24 432.56,-124.24 76.56,-124.24"/>
<text text-anchor="start" x="87.5" y="-144.44" font-family="Helvetica,sans-Serif" font-size="32.00" fill="#29235c">Nom &#160;&#160;&#160;</text>
<text text-anchor="start" x="190.51" y="-145.44" font-family="Helvetica,sans-Serif" font-style="italic" font-size="32.00" fill="#29235c">VARCHAR(200)</text>
<polygon fill="none" stroke="#29235c" stroke-width="2" points="75.56,-123.24 75.56,-305.24 433.56,-305.24 433.56,-123.24 75.56,-123.24"/>
</g>
<!-- OS&#45;&gt;Ordinateurs -->
<!-- OS&#45;&gt;Ordinateurs -->
<g id="edge12" class="edge">
<title>OS:e&#45;&gt;Ordinateurs:w</title>
<path fill="none" stroke="#29235c" stroke-width="3" d="M433.56,-214.24C529.88,-214.24 542.07,-137.9 632.47,-132.54"/>
<polygon fill="#29235c" stroke="#29235c" stroke-width="3" points="632.78,-136.03 642.68,-132.24 632.58,-129.03 632.78,-136.03"/>
<text text-anchor="middle" x="636.45" y="-103.44" font-family="Helvetica,sans-Serif" font-size="32.00" fill="#29235c">*</text>
<text text-anchor="middle" x="424.66" y="-185.44" font-family="Helvetica,sans-Serif" font-size="32.00" fill="#29235c">1</text>
</g>
<!-- Users -->
<g id="Users" class="node">
<title>Users</title>
<ellipse fill="none" stroke="black" stroke-width="0" cx="254.56" cy="-770.24" rx="254.62" ry="130.22"/>
<polygon fill="#1d71b8" stroke="transparent" points="76.56,-800.24 76.56,-860.24 432.56,-860.24 432.56,-800.24 76.56,-800.24"/>
<polygon fill="none" stroke="#29235c" points="76.56,-800.24 76.56,-860.24 432.56,-860.24 432.56,-800.24 76.56,-800.24"/>
<text text-anchor="start" x="150.54" y="-821.44" font-family="Helvetica,sans-Serif" font-weight="bold" font-size="32.00" fill="#ffffff"> &#160;&#160;&#160;&#160;&#160;&#160;Users &#160;&#160;&#160;&#160;&#160;&#160;</text>
<polygon fill="#e7e2dd" stroke="transparent" points="76.56,-740.24 76.56,-800.24 432.56,-800.24 432.56,-740.24 76.56,-740.24"/>
<polygon fill="none" stroke="#29235c" points="76.56,-740.24 76.56,-800.24 432.56,-800.24 432.56,-740.24 76.56,-740.24"/>
<text text-anchor="start" x="87.56" y="-760.44" font-family="Helvetica,sans-Serif" font-size="32.00" fill="#29235c">UserID &#160;&#160;&#160;</text>
<text text-anchor="start" x="370.02" y="-761.44" font-family="Helvetica,sans-Serif" font-style="italic" font-size="32.00" fill="#29235c">INT</text>
<polygon fill="#e7e2dd" stroke="transparent" points="76.56,-680.24 76.56,-740.24 432.56,-740.24 432.56,-680.24 76.56,-680.24"/>
<polygon fill="none" stroke="#29235c" points="76.56,-680.24 76.56,-740.24 432.56,-740.24 432.56,-680.24 76.56,-680.24"/>
<text text-anchor="start" x="87.5" y="-700.44" font-family="Helvetica,sans-Serif" font-size="32.00" fill="#29235c">Nom &#160;&#160;&#160;</text>
<text text-anchor="start" x="190.51" y="-701.44" font-family="Helvetica,sans-Serif" font-style="italic" font-size="32.00" fill="#29235c">VARCHAR(200)</text>
<polygon fill="none" stroke="#29235c" stroke-width="2" points="75.56,-679.24 75.56,-861.24 433.56,-861.24 433.56,-679.24 75.56,-679.24"/>
</g>
<!-- Users&#45;&gt;Ordinateurs -->
<!-- Users&#45;&gt;Ordinateurs -->
<g id="edge8" class="edge">
<title>Users:e&#45;&gt;Ordinateurs:w</title>
<path fill="none" stroke="#29235c" stroke-width="3" d="M433.56,-770.24C606.58,-770.24 471.81,-445.96 632.21,-432.66"/>
<polygon fill="#29235c" stroke="#29235c" stroke-width="3" points="632.82,-436.14 642.68,-432.24 632.54,-429.14 632.82,-436.14"/>
<text text-anchor="middle" x="636.45" y="-403.44" font-family="Helvetica,sans-Serif" font-size="32.00" fill="#29235c">*</text>
<text text-anchor="middle" x="424.66" y="-779.84" font-family="Helvetica,sans-Serif" font-size="32.00" fill="#29235c">1</text>
</g>
</g>
</svg>
